<svg width="890" height="890" viewBox="0 0 890 890" fill="none" xmlns="http://www.w3.org/2000/svg">
<rect width="890" height="890" fill="white"/>
<path d="M620.785 489.498H708V577.523H620.785V665.242H533.212V752.5H444.77V666.06H357.862V752.142H268.908V665.242H182V225.627H268.397V137.5H356.941V225.627C385.57 225.627 412.716 225.627 439.913 225.627C440.963 225.331 441.917 224.764 442.68 223.984C443.442 223.203 443.987 222.237 444.259 221.18C444.259 193.474 444.259 165.768 443.747 138.011H532.292C532.292 164.337 532.854 190.612 532.65 216.886C532.65 223.787 534.286 226.19 541.545 226.036C564.499 225.627 587.555 226.036 610.458 226.036H620.376V313.295H707.949V401.473H620.785V315.033H270.34V664.373H357.248V576.808H620.529C620.529 572.411 620.529 569.089 620.529 565.715C620.529 540.258 620.717 514.802 621.092 489.345L620.785 489.498Z" fill="#0A4846"/>
<path d="M620.787 400.809V489.345H357.506V401.166H620.787V400.809Z" fill="#0A4846"/>
</svg>
